<svg width="28" height="28" viewBox="0 0 28 28" fill="none" xmlns="http://www.w3.org/2000/svg">
<g clip-path="url(#clip0_3974_69205)">
<path d="M14 28.0001C10.29 28.0117 6.72001 26.5301 4.09501 23.9051C1.47001 21.2801 -0.0116593 17.7101 7.34509e-06 14.0001C-0.0116593 10.2901 1.47001 6.72007 4.10667 4.10673C6.72001 1.47007 10.29 -0.0115983 14 6.83796e-05C15.8433 6.83796e-05 17.6633 0.361735 19.355 1.06174C21.0583 1.76173 22.5983 2.80007 23.8933 4.09507C25.2 5.39007 26.2267 6.94173 26.9267 8.6334C27.6383 10.3367 28 12.1567 28 14.0001C28.0117 17.7101 26.53 21.2801 23.8933 23.8934C21.28 26.5301 17.71 28.0117 14 28.0001ZM10.5 8.16673C9.21667 8.16673 8.16667 9.21673 8.16667 10.5001V17.5001C8.16667 18.7834 9.21667 19.8334 10.5 19.8334H17.5C18.7833 19.8334 19.8333 18.7834 19.8333 17.5001V10.5001C19.8333 9.21673 18.7833 8.16673 17.5 8.16673H10.5Z" fill="#98989E"/>
</g>
<defs>
<clipPath id="clip0_3974_69205">
<rect width="28" height="28" fill="#98989E"/>
</clipPath>
</defs>
</svg>
